/* XPM */
static char *result[] = {
/* columns rows colors chars-per-pixel */
"64 64 241 2 ",
"   c #784922",
".  c #794B23",
"X  c #7A4B23",
"o  c #7B4C24",
"O  c #7C4E25",
"+  c #7D4E26",
"@  c #7E5026",
"#  c #7F5027",
"$  c #7F5127",
"%  c #805127",
"&  c #805227",
"*  c #805228",
"=  c #815328",
"-  c #825329",
";  c #825429",
":  c #835529",
">  c #83552A",
",  c #83562A",
"<  c #84572B",
"1  c #85582B",
"2  c #86592C",
"3  c #895B2D",
"4  c #895B2E",
"5  c #895C2E",
"6  c #8A5C2E",
"7  c #8A5D2F",
"8  c #8B5E2F",
"9  c #8C5F30",
"0  c #8D6031",
"q  c #8E6031",
"w  c #8E6131",
"e  c #906333",
"r  c #916433",
"t  c #926533",
"y  c #926534",
"u  c #936634",
"i  c #946735",
"p  c #946835",
"a  c #946836",
"s  c #966936",
"d  c #986B37",
"f  c #986C38",
"g  c #996D39",
"h  c #9A6D39",
"j  c #9A6E3A",
"k  c #9B6F3A",
"l  c #9C6F3A",
"z  c #9C703A",
"x  c #9D703A",
"c  c #9C703B",
"v  c #9D713B",
"b  c #9E723C",
"n  c #9F733C",
"m  c #9F733D",
"M  c #A1753D",
"N  c #A1753E",
"B  c #A1763E",
"V  c #A3773F",
"C  c #A67A40",
"Z  c #A67A41",
"A  c #A67B41",
"S  c #A87D42",
"D  c #A87D43",
"F  c #A97D43",
"G  c #AA7E44",
"H  c #AA7F44",
"J  c #AC8145",
"K  c #AD8246",
"L  c #AF8447",
"P  c #B18648",
"I  c #B18649",
"U  c #B18749",
"Y  c #B3894A",
"T  c #B4894A",
"R  c #B4894B",
"E  c #B48A4B",
"W  c #B58A4B",
"Q  c #BA8F4C",
"!  c #BB914E",
"~  c #BA904F",
"^  c #BB914F",
"/  c #BC9250",
"(  c #BD9350",
")  c #BD9351",
"_  c #BD9451",
"`  c #BE9451",
"'  c #BE9552",
"]  c #BF9552",
"[  c #C09550",
"{  c #C09652",
"}  c #C09653",
"|  c #C09753",
" . c #C19753",
".. c #C19853",
"X. c #C19854",
"o. c #C39954",
"O. c #C49B56",
"+. c #C59C55",
"@. c #C69D57",
"#. c #C89E55",
"$. c #C79E58",
"%. c #C9A057",
"&. c #CBA259",
"*. c #CBA25A",
"=. c #CBA25B",
"-. c #CFA559",
";. c #CCA45B",
":. c #D1A85C",
">. c #D1A95E",
",. c #D1A95F",
"<. c #D4AB5D",
"1. c #D4AB5E",
"2. c #D5AC5D",
"3. c #D5AC5E",
"4. c #D6AE5F",
"5. c #D7AF5F",
"6. c #D4AC60",
"7. c #D5AD60",
"8. c #D4AC61",
"9. c #D5AD61",
"0. c #D5AE62",
"q. c #D6AE62",
"w. c #D8AF60",
"e. c #D8B063",
"r. c #D9B063",
"t. c #D8B163",
"y. c #DCB362",
"u. c #DDB462",
"i. c #DDB563",
"p. c #DEB663",
"a. c #DBB365",
"s. c #DDB566",
"d. c #DFB868",
"f. c #E2B965",
"g. c #E3BB67",
"h. c #E4BB66",
"j. c #E4BC66",
"k. c #E5BC66",
"l. c #E5BD66",
"z. c #E4BC67",
"x. c #E5BC67",
"c. c #E5BD67",
"v. c #E6BD67",
"b. c #E6BE67",
"n. c #E0B869",
"m. c #E0B969",
"M. c #E1BA6A",
"N. c #E3BC6A",
"B. c #E6BE68",
"V. c #E7BE68",
"C. c #E7BF68",
"Z. c #E7BF69",
"A. c #E4BE6C",
"S. c #E5BF6D",
"D. c #E6BF6C",
"F. c #E8BF69",
"G. c #E1BF7A",
"H. c #EBC067",
"J. c #E7C16E",
"K. c #E8C06A",
"L. c #E8C16A",
"P. c #E9C16A",
"I. c #E8C16B",
"U. c #E9C16B",
"Y. c #E9C26B",
"T. c #EAC26B",
"R. c #ECC168",
"E. c #ECC268",
"W. c #EDC268",
"Q. c #EDC36A",
"!. c #EDC36B",
"~. c #EDC46B",
"^. c #E9C26C",
"/. c #EAC26C",
"(. c #EAC36C",
"). c #EBC36C",
"_. c #EAC36D",
"`. c #EBC36D",
"'. c #E9C36F",
"]. c #EAC36F",
"[. c #EBC46E",
"{. c #EDC56C",
"}. c #ECC56F",
"|. c #F0C86F",
" X c #EAC470",
".X c #EBC571",
"XX c #ECC670",
"oX c #EDC670",
"OX c #EDC771",
"+X c #EEC771",
"@X c #EEC772",
"#X c #EEC871",
"$X c #EFC872",
"%X c #EFC972",
"&X c #EFC973",
"*X c #E2C079",
"=X c #E1C17D",
"-X c #E3C17C",
";X c #E2C17D",
":X c #E2C27D",
">X c #E2C17E",
",X c #E2C27E",
"<X c #E3C27E",
"1X c #E2C27F",
"2X c #E3C37F",
"3X c #E4C37F",
"4X c #E5C47E",
"5X c #E4C47F",
"6X c #E6C57F",
"7X c #F0C870",
"8X c #F0C973",
"9X c #F0CA73",
"0X c #F0CA74",
"qX c #F1CB74",
"wX c #F1CB75",
"eX c #F0CD7D",
"rX c #F0CD7E",
"tX c #F0CD7F",
"yX c #F1CE7E",
"uX c #F1CE7F",
"iX c #F1CF7F",
"pX c #F2CF7E",
"aX c #E5C480",
"sX c #E5C580",
"dX c #E8C882",
"fX c #F0CE80",
"gX c #F1CF80",
"hX c #F0CF81",
"jX c #F2D080",
"kX c #F3D182",
"lX c #F4D281",
"zX c #F7DD9D",
"xX c #F6DD9E",
"cX c #F7DD9E",
"vX c #F6DD9F",
"bX c #F6DE9F",
"nX c #F7DE9F",
"mX c #F7DEA0",
"MX c #F7DFA0",
"NX c #F7DFA1",
"BX c None",
/* pixels */
"BXBXBXBXBXBXBXBXBXBXBXBXBXBXBXBXBXBXBXBXBXBXBXBXBXBXBXBXBXBXBXBXBXBXBXBXBXBXBXBXBXBXBXBXBXBXBXBXBXBXBXBXBXBXBXBXBXBXBXBXBXBXBXBX",
"BXBXBXBXBXBXBXBXBXBXBXBXBXBXBXBXBXBXBXBXBXBXBXBXBXBXBXBXBXBXBXBXBXBXBXBXBXBXBXBXBXBXBXBXBXBXBXBXBXBXBXBXBXBXBXBXBXBXBXBXBXBXBXBX",
"BXBXBXBXBXBXBXBXBXBXBXBXBXBXBXBXBXBXBXBXBXBXBXBXBXBXBXBXBXBXBXBXBXBXBXBXBXBXBXBXBXBXBXBXBXBXBXBXBXBXBXBXBXBXBXBXBXBXBXBXBXBXBXBX",
"BXBXBXBXBXBXBXBXBXBXBXBXBXBXBXBXBXBXBXBXBXBXBXBXBXBXBXBXBXBXBXBXBXBXBXBXBXBXBXBXBXBXBXBXBXBXBXBXBXBXBXBXBXBXBXBXBXBXBXBXBXBXBXBX",
"BXBXBXBXBXBXBXBXBXBXBXBXBXBXBXBXBXBXBXBXBXBXBXBXBXBXBXBXBXBXBXBXBXBXBXBXBXBXBXBXBXBXBXBXBXBXBXBXBXBXBXBXBXBXBXBXBXBXBXBXBXBXBXBX",
"BXBXBXBXBXBXBXBXBXBXBXBXBXBXBXBXBXBXBXBXBXBXBXBXBXBXBXBXBXBXBXBXBXBXBXBXBXBXBXBXBXBXBXBXBXBXBXBXBXBXBXBXBXBXBXBXBXBXBXBXBXBXBXBX",
"BXBXBXBXBXBXBXBXBXBXBXBXBXBXBXBXBXBXBXBXBXBXBXBXBXBXBXBXBXBXBXBXBXBXBXBXBXBXBXBXBXBXBXBXBXBXBXBXBXBXBXBXBXBXBXBXBXBXBXBXBXBXBXBX",
"BXBXBXBXBXBXBXBXBXBXBXBXBXBXBXBXBXBXBXBXBXBXBXBXBXBXBXBXBXBXBXBXBXBXBXBXBXBXBXBXBXBXBXBXBXBXBXBXBXBXBXBXBXBXBXBXBXBXBXBXBXBXBXBX",
"BXBXBXBXBXBXBXBXBXBXBXBXBXBXBXBXBXBXBXBXBXBXBXBXBXBXBXBXBXBXBXBXBXBXBXBXBXBXBXBXBXBXBXBXBXBXBXBXBXBXBXBXBXBXBXBXBXBXBXBXBXBXBXBX",
"BXBXBXBXBXBXBXBXBXBXBXBXBXBXBXBXBXBXBXBXBXBXBXBXBXBXBXBXBXBXBXBXBXBXBXBXBXBXBXBXBXBXBXBXBXBXBXBXBXBXBXBXBXBXBXBXBXBXBXBXBXBXBXBX",
"BXBXBXBXBXBXBXBXBXBXBXBXBXBXBXBXBXBXBXBXBXBXBXBXBXBXBXBXBXBXBXBXBXBXBXBXBXBXBXBXBXBXBXBXBXBXBXBXBXBXBXBXBXBXBXBXBXBXBXBXBXBXBXBX",
"BXBXBXBXBXBXBXBXBXBXBXBXBXBXBXBXBXBXBXBXBXBXBXBXBXBXBXBXBXBXBXBXBXBXBX8 u 6 BXBXBXBX3 c A V r BXBXBXBXBXBXBXBXBXBXBXBXBXBXBXBXBX",
"BXBXBXBXBXBXBXBXBXBXBXBXBXBXBXBXBXBXBXBXBXBXBXBXBXBXBXBXBXBXBXBXBX# L 5.p.3.L $ X Z 7.g.c.j.y.T 1 BXBXBXBXBXBXBXBXBXBXBXBXBXBXBX",
"BXBXBXBXBXBXBXBXBXBXBXBXBXBXBXBXBXBXBXBXBXBXBXBXBXBXBXBXBXBXBXBXBXK x.P.}.L.j...` f.C._.+X+XT.l.&.8 BXBXBXBXBXBXBXBXBXBXBXBXBXBX",
"BXBXBXBXBXBXBXBXBXBXBXBXBXBXBXBXBXBXBXBXBXBXBXBXBXBXBXBXBXBXBXBXO %.F.&X&X&X^.l.v./.&X&X,./ 8.[.b.^ BXBXBXBXBXBXBXBXBXBXBXBXBXBX",
"BXBXBXBXBXBXBXBXBXBXBXBXBXBXBXBXBXBXBXBXBXBXBXBXBXBXBXBXBXBXBXBX+ #.U.&X&X&X&X_.}.&X0X=.> BX5 q.).i.i BXBXBXBXBXBXBXBXBXBXBXBXBX",
"BXBXBXBXBXBXBXBXBXBXBXBXBXBXBXBXBXBXBXBXBXBXBXBXBXBXBXBXBXBXBXBXBXQ K.&X&X&X&X&X&X&X&XF BXBXBXR #Xv.J BXBXBXBXBXBXBXBXBXBXBXBXBX",
"BXBXBXBXBXBXBXBXBXBXBXBXBXBXBXBXBXBXBXBXBXBXBXBXBXBXBXBXBXBXBXBXBXC h.OX&X&X&X&X&X&X0X)   BXo $.$Xb.P BXBXBXBXBXBXBXBXBXBXBXBXBX",
"BXBXBXBXBXBXBXBXBXBXBXBXBXBXBXBXBXBXBXBXBXBXBXBXBXBXBXBXBXBXBXBXBX7 <.U.&X&X&X&X&X&X&X].X.G | .X[.j.B BXBXBXBXBXBXBXBXBXBXBXBXBX",
"BXBXBXBXBXBXBXBXBXBXBXBXBXBXBXBXBXBXBXBXBXBXBXBXBXBXBXBXBXBXBXBXBXBXL v.XX&X&X&X&X&X&X&XqX&X0X&XZ.w.5 BXBXBXBXBXBXBXBXBXBXBXBXBX",
"BXBXBXBXBXBXBXBXBXBXBXBXBXBXBXBXBXBXBXBXBXBXBXBXBXBXBXBXBXBXBXBXBXBX4 1.C.$X&X&X&X&X&X&X&X&X&X[.h.J BXBXBXBXBXBXBXBXBXBXBXBXBXBX",
"BXBXBXBXBXBXBXBXBXBXBXBXBXBXBXBXBXBXBXBXBXBXBXBXBXBXBXBXBXBXBXBXBXBXBXD z.I.&X&X&X&X&X&X&X&XoXb.+.@ BXBXBXBXBXBXBXBXBXBXBXBXBXBX",
"BXBXBXBXBXBXBXBXBXBXBXBXBXBXBXBXBXBXBXBXBXBXBXBXBXBXBXBXBXBXBXBXBXBXBX< t.b.[.&X&X&X&X&X&X&X`.k.o.$ BXBXBXBXBXBXBXBXBXBXBXBXBXBX",
"BXBXBXBXBXBXBXBXBXBXBXBXBXBXBXBXBXBXBXBXBXBXBXBXBXBXBXBXBXBXBXBXBXBXBX: e.+Xk.[.&X&X&X&X&X&X&X^.k.W BXBXBXBXBXBXBXBXBXBXBXBXBXBX",
"BXBXBXBXBXBXBXBXBXBXBXBXBXBXBXBXBXBXBXBXBXBXBXBXBXBXBXBXBXBXBXBXBXBXBXM '.0XoXk.U.&X&X&X&X&X&X&XP.y.y BXBXBXBXBXBXBXBXBXBXBXBXBX",
"BXBXBXBXBXBXBXBXBXBXBXBXBXBXBXBXBXBXBXBXBXBXBXBXBXBXBXBXBXBXBXBXBXBXk *XjX9XJ.N.Z.B.XX&X&X&X&X&XXXf.v BXBXBXBXBXBXBXBXBXBXBXBXBX",
"BXBXBXBXBXBXBXBXBXBXBXBXBXBXBXBXBXBXBXBXBXBXBXBXBXBXBXBXBXBXBXBXBXv -XcXeX@.s y E 4.c.U.+X&X&X&XY.u.a BXBXBXBXBXBXBXBXBXBXBXBXBX",
"BXBXBXBXBXBXBXBXBXBXBXBXBXBXBXBXBXBXBXBXBXBXBXBXBXBXBXBXBXBXBXBXx 4XcXrX` & BXBXBX8 Y 2.j.Y.(.K.V.! . BXBXBXBXBXBXBXBXBXBXBXBXBX",
"BXBXBXBXBXBXBXBXBXBXBXBXBXBXBXBXBXBXBXBXBXBXBXBXBXBXBXBXBXBXBXj ;XzXrX] $ BXBXBXBXBXBX7 S [ -.:.~ 2 BXBXBXBXBXBXBXBXBXBXBXBXBXBX",
"BXBXBXBXBXBXBXBXBXBXBXBXBXBXBXBXBXBXBXBXBXBXBXBXBXBXBXBXBXBXz 3XnXfX^ @ BXBXBXBXBXBXBXBXBXBX; ; BXBXBXBXBXBXBXBXBXBXBXBXBXBXBXBX",
"BXBXBXBXBXBXBXBXBXBXBXBXBXBXBXBXBXBXBXBXBXBXBXBXBXBXBXBXBXl :XnXtX] % BXBXBXBXBXBXBXBXBXBXBXBXBXBXBXBXBXBXBXBXBXBXBXBXBXBXBXBXBX",
"BXBXBXBXBXBXBXBXBXBXBXBXBXBXBXBXBXBXBXBXBXBXBXBXBXBXBXBXk aXmXfX( @ BXBXBXBXBXBXBXBXBXBXBXBXBXBXBXBXBXBXBXBXBXBXBXBXBXBXBXBXBXBX",
"BXBXBXBXBXBXBXBXBXBXBXBXBXBXBXBXBXBXBXBXBXBXBXBXBXBXBXk 3XmXgX/ $ BXBXBXBXBXBXBXBXBXBXBXBXBXBXBXBXBXBXBXBXBXBXBXBXBXBXBXBXBXBXBX",
"BXBXBXBXBXBXBXBXBXBXBXBXBXBXBXBXBXBXBXBXBXBXBXBXBXBXk ,XMXfX_ % BXBXBXBXBXBXBXBXBXBXBXBXBXBXBXBXBXBXBXBXBXBXBXBXBXBXBXBXBXBXBXBX",
"BXBXBXBXBXBXBXBXBXBXBXBXBXBXBXBXBXBXBXBXBXBXBXBXBXn 3XmXfX` $ BXBXBXBXBXBXBXBXBXBXBXBXBXBXBXBXBXBXBXBXBXBXBXBXBXBXBXBXBXBXBXBXBX",
"BXBXBXBXBXBXBXBXBXBXBXBXBXBXBXBXBXBXBXBXBXBXBXBXz 6XnXgX..# BXBXBXBXBXBXBXBXBXBXBXBXBXBXBXBXBXBXBXBXBXBXBXBXBXBXBXBXBXBXBXBXBXBX",
"BXBXBXBXBXBXBXBXBXBXBXBXBXBXBXBXBXBXBXBXBXBXBXk =XmXhX( > BXBXBXBXBXBXBXBXBXBXBXBXBXBXBXBXBXBXBXBXBXBXBXBXBXBXBXBXBXBXBXBXBXBXBX",
"BXBXBXBXBXBXBXBXBXBXBXBXBXBXBXBXBXBXBXBXBXBXN sXNXgX .* BXBXBXBXBXBXBXBXBXBXBXBXBXBXBXBXBXBXBXBXBXBXBXBXBXBXBXBXBXBXBXBXBXBXBXBX",
"BXBXBXBXBXBXBXBXBXBXBXBXBXBXBXBXBXBXBXBXBXB dXnXfX{ = BXBXBXBXBXBXBXBXBXBXBXBXBXBXBXBXBXBXBXBXBXBXBXBXBXBXBXBXBXBXBXBXBXBXBXBXBX",
"BXBXBXBXBXBXBXBXBXBXBXBXBXBXBXBXBXBXBXBXc 3XmXfX` % BXBXBXBXBXBXBXBXBXBXBXBXBXBXBXBXBXBXBXBXBXBXBXBXBXBXBXBXBXBXBXBXBXBXBXBXBXBX",
"BXBXBXBXBXBXBXBXBXBXBXBXBXBXBXBXBXBXBXd 1XmXkX;.* BXBXBXBXBXBXBXBXBXBXBXBXBXBXBXBXBXBXBXBXBXBXBXBXBXBXBXBXBXBXBXBXBXBXBXBXBXBXBX",
"BXBXBXBXBXBXBXBXBXBXBXBXBXBXBXBXBXBXg >XvXgX|.*.$ BXBXBXBXBXBXBXBXBXBXBXBXBXBXBXBXBXBXBXBXBXBXBXBXBXBXBXBXBXBXBXBXBXBXBXBXBXBXBX",
"BXBXBXBXBXBXBXBXBXBXBXBXBXBXBXBXBXk <XxXuX~.E.@X' ; BXBXBXBXBXBXBXBXBXBXBXBXBXBXBXBXBXBXBXBXBXBXBXBXBXBXBXBXBXBXBXBXBXBXBXBXBXBX",
"BXBXBXBXBXBXBXBXBXBXBXBXBXBXBXBXb <XbXuXQ.R.8XwX&XO.- BXBXBXBXBXBXBXBXBXBXBXBXBXBXBXBXBXBXBXBXBXBXBXBXBXBXBXBXBXBXBXBXBXBXBXBXBX",
"BXBXBXBXBXBXBXBXBXBXBXBXBXBXBXl 2XcXiX!.R.%Xa.@. X0XU BXBXBXBXBXBXBXBXBXBXBXBXBXBXBXBXBXBXBXBXBXBXBXBXBXBXBXBXBXBXBXBXBXBXBXBXBX",
"BXBXBXBXBXBXBXBXBXBXBXBXBXBXm 5XxXuX~.W.9Xn.r   I M.H BXBXBXBXBXBXBXBXBXBXBXBXBXBXBXBXBXBXBXBXBXBXBXBXBXBXBXBXBXBXBXBXBXBXBXBXBX",
"BXBXBXBXBXBXBXBXBXBXBXBXBXi G.cXyX~.H.r.A.d.9 BXBX9 BXBXBXBXBXBXBXBXBXBXBXBXBXBXBXBXBXBXBXBXBXBXBXBXBXBXBXBXBXBXBXBXBXBXBXBXBXBX",
"BXBXBXBXBXBXBXBXBXBXBXBXBXH lXpX{.H.` , h m.>.0 BXBXBXBXBXBXBXBXBXBXBXBXBXBXBXBXBXBXBXBXBXBXBXBXBXBXBXBXBXBXBXBXBXBXBXBXBXBXBXBX",
"BXBXBXBXBXBXBXBXBXBXBXBXBX0 | s.7XD.e BXBXk 9.m BXBXBXBXBXBXBXBXBXBXBXBXBXBXBXBXBXBXBXBXBXBXBXBXBXBXBXBXBXBXBXBXBXBXBXBXBXBXBXBX",
"BXBXBXBXBXBXBXBXBXBXBXBXBXBXBXt 0.0X] @ BXBX> BXBXBXBXBXBXBXBXBXBXBXBXBXBXBXBXBXBXBXBXBXBXBXBXBXBXBXBXBXBXBXBXBXBXBXBXBXBXBXBXBX",
"BXBXBXBXBXBXBXBXBXBXBXBXBXBXBXBXw 6.&X} : BXBXBXBXBXBXBXBXBXBXBXBXBXBXBXBXBXBXBXBXBXBXBXBXBXBXBXBXBXBXBXBXBXBXBXBXBXBXBXBXBXBXBX",
"BXBXBXBXBXBXBXBXBXBXBXBXBXBXBXBXBXq ,.S.p BXBXBXBXBXBXBXBXBXBXBXBXBXBXBXBXBXBXBXBXBXBXBXBXBXBXBXBXBXBXBXBXBXBXBXBXBXBXBXBXBXBXBX",
"BXBXBXBXBXBXBXBXBXBXBXBXBXBXBXBXBXBX4 f BXBXBXBXBXBXBXBXBXBXBXBXBXBXBXBXBXBXBXBXBXBXBXBXBXBXBXBXBXBXBXBXBXBXBXBXBXBXBXBXBXBXBXBX",
"BXBXBXBXBXBXBXBXBXBXBXBXBXBXBXBXBXBXBXBXBXBXBXBXBXBXBXBXBXBXBXBXBXBXBXBXBXBXBXBXBXBXBXBXBXBXBXBXBXBXBXBXBXBXBXBXBXBXBXBXBXBXBXBX",
"BXBXBXBXBXBXBXBXBXBXBXBXBXBXBXBXBXBXBXBXBXBXBXBXBXBXBXBXBXBXBXBXBXBXBXBXBXBXBXBXBXBXBXBXBXBXBXBXBXBXBXBXBXBXBXBXBXBXBXBXBXBXBXBX",
"BXBXBXBXBXBXBXBXBXBXBXBXBXBXBXBXBXBXBXBXBXBXBXBXBXBXBXBXBXBXBXBXBXBXBXBXBXBXBXBXBXBXBXBXBXBXBXBXBXBXBXBXBXBXBXBXBXBXBXBXBXBXBXBX",
"BXBXBXBXBXBXBXBXBXBXBXBXBXBXBXBXBXBXBXBXBXBXBXBXBXBXBXBXBXBXBXBXBXBXBXBXBXBXBXBXBXBXBXBXBXBXBXBXBXBXBXBXBXBXBXBXBXBXBXBXBXBXBXBX",
"BXBXBXBXBXBXBXBXBXBXBXBXBXBXBXBXBXBXBXBXBXBXBXBXBXBXBXBXBXBXBXBXBXBXBXBXBXBXBXBXBXBXBXBXBXBXBXBXBXBXBXBXBXBXBXBXBXBXBXBXBXBXBXBX",
"BXBXBXBXBXBXBXBXBXBXBXBXBXBXBXBXBXBXBXBXBXBXBXBXBXBXBXBXBXBXBXBXBXBXBXBXBXBXBXBXBXBXBXBXBXBXBXBXBXBXBXBXBXBXBXBXBXBXBXBXBXBXBXBX",
"BXBXBXBXBXBXBXBXBXBXBXBXBXBXBXBXBXBXBXBXBXBXBXBXBXBXBXBXBXBXBXBXBXBXBXBXBXBXBXBXBXBXBXBXBXBXBXBXBXBXBXBXBXBXBXBXBXBXBXBXBXBXBXBX",
"BXBXBXBXBXBXBXBXBXBXBXBXBXBXBXBXBXBXBXBXBXBXBXBXBXBXBXBXBXBXBXBXBXBXBXBXBXBXBXBXBXBXBXBXBXBXBXBXBXBXBXBXBXBXBXBXBXBXBXBXBXBXBXBX",
"BXBXBXBXBXBXBXBXBXBXBXBXBXBXBXBXBXBXBXBXBXBXBXBXBXBXBXBXBXBXBXBXBXBXBXBXBXBXBXBXBXBXBXBXBXBXBXBXBXBXBXBXBXBXBXBXBXBXBXBXBXBXBXBX",
"BXBXBXBXBXBXBXBXBXBXBXBXBXBXBXBXBXBXBXBXBXBXBXBXBXBXBXBXBXBXBXBXBXBXBXBXBXBXBXBXBXBXBXBXBXBXBXBXBXBXBXBXBXBXBXBXBXBXBXBXBXBXBXBX",
"BXBXBXBXBXBXBXBXBXBXBXBXBXBXBXBXBXBXBXBXBXBXBXBXBXBXBXBXBXBXBXBXBXBXBXBXBXBXBXBXBXBXBXBXBXBXBXBXBXBXBXBXBXBXBXBXBXBXBXBXBXBXBXBX"
};
