/* XPM */
static char *result[] = {
/* columns rows colors chars-per-pixel */
"64 64 87 1 ",
"  c #5C5D5F",
". c #626466",
"X c #6C6B67",
"o c #67696A",
"O c #6C6C6D",
"+ c #73726E",
"@ c #6D6E71",
"# c #6F7172",
"$ c #737474",
"% c #797774",
"& c #777877",
"* c #7B7976",
"= c #767779",
"- c #78777A",
"; c #77787A",
": c #7C7C7B",
"> c #817D77",
", c #817E7B",
"< c #7E807F",
"1 c #82817E",
"2 c #8A857D",
"3 c #7D7E81",
"4 c #7F8081",
"5 c #848483",
"6 c #888783",
"7 c #868886",
"8 c #8A8986",
"9 c #858689",
"0 c #898788",
"q c #878989",
"w c #8C8C8B",
"e c #928D85",
"r c #918E8A",
"t c #8F908E",
"y c #959187",
"u c #92918D",
"i c #9A958D",
"p c #8E8F91",
"a c #908F90",
"s c #8F9191",
"d c #949493",
"f c #989793",
"g c #969897",
"h c #9A9996",
"j c #969798",
"k c #979898",
"l c #9C9C9B",
"z c #A19A8F",
"x c #A29E95",
"c c #A19F9B",
"v c #9FA09D",
"b c #A5A097",
"n c #A2A19E",
"m c #A9A69F",
"M c #9FA1A0",
"N c #A4A4A3",
"B c #A9A6A2",
"V c #A6A8A7",
"C c #AAAAA6",
"Z c #A7A9A8",
"A c #ACACAA",
"S c #B0AEA7",
"D c #B0AFAC",
"F c #AFB0AC",
"G c #B2B2AD",
"H c #BAB6AF",
"J c #AFB0B0",
"K c #B5B5B2",
"L c #B9B7B3",
"P c #B7B8B4",
"I c #BABAB5",
"U c #BDBDBA",
"Y c #C0BEB6",
"T c #C0BEBA",
"R c #BFC0BC",
"E c #C5C3B6",
"W c #C2C1BE",
"Q c #C5C5C2",
"! c #C8C7C3",
"~ c #C7C8C3",
"^ c #CAC9C5",
"/ c #CCCCC9",
"( c #D0CFCB",
") c #D1D1CE",
"_ c #D5D5D3",
"` c #D8D7D5",
"' c #D8D8D6",
/* pixels */
"i11r*u8e61w8iw5utit2+&mttwhww1tudyhd5h2wnw%klkp0p33$3#3$o=993-53",
"8wr112wdw6wuhf68ru8u5+vwhny5w8tyugiwhf5dtd15dgdajpp-33333393@o-,",
">88it+<1yw868i5%t<2Cw&uwfcdqwdhhwtqdNu6wwn&skkNdp0$-@393333o@5-%",
"%:dfiy<166<88iw%6hd5<ohuhdqucdunywutug8dwg15Nkap393s39933o3@=5-+",
"y1516yi*8511:wt5tw*5%Owddu5hkwqqudfldtudvNd7kgqqV3933999@$#O@=@+",
"uhd1t81tu8:<51<1w:5wq%dvlqfkddhd5wfkdtdlhf5qwsqsp33-9993---@@$33",
"rdi686<11::51<8d55lw45utddkfhuddddkkddnZkv7sjgs;994p93333-#3@O--",
"hih166<<%5d85555d85tw;hw6ddNfdwklkrdddlAvV4444ts9pj339333#===5-=",
"yufu<<5<ww588d5:dd781.ltfkduqddflldldlkchM=$4sg4=p9-=9393-3@@33@",
"fy<wr185i<q55u7&%78w*=ddNdfdlrwdBlCkdcldNl=%sgssd93#9033-3==@3=@",
"wutwt88555*85h1&:876$=ddqdlkdlNkNANhdhllsv454jdMkw33-33-$=33@3@#",
"vtt2d86tq*O::518t511o$dddclwrllfcNNNhNkdlMt=:qMk9j33$-339333--$3",
"y2twd8f61&&18:%w55:1;=lkkdllnfcNNNcNfdkNlk44t:vqpjp39333333-@##O",
"<vt28tttw571<5%:15:53*AklrdlhkZkNCZddlNNdN&=4<9spkj493o9333-#3-$",
"htuv15dw5wd1515www57*4BlgdhNNdBNdllNlClcVJ477sqqjq9ja333393334--",
"2<<286w55i5558ww8w5w=#lvhNhddNNkkdlcNwlNMl47vsqqs=4p433==-3@3933",
"<wt<tv2t58w:wwwd878t#=VdlNddnCNNVhvnVhvvvv4sZs4s9ss943=#4#334394",
"fxft<t8t:w5&y5+<:<78&4ndlNdqcNClnl8hvvvvvZ4Mss44qkq4333344#=43p9",
"thw7tt<<8888t<:w77whq9hlcNNrdZnlgwtvvvvvgw<444s4774=44j4j3@33@j9",
"vi<ytff8q5dhlvw7t88qq:vvnNkllNcNlNvg8vvCtV4<4t44<q&&9p444333$$=p",
"wif2<<<2588w5d5%q5w:=:klMkrlNNhrundwtMvttR.4<<#4<#$<4j444=3#$-$@",
"mmvvvhdfwlNudNZNNvNVs:8gr60:555$:55:7w4wtt.###@#t;4t=<44339ppjd;",
"RKRWWFCFLRAnPATUUQQR/dwtdk555qujwstwtgk44t<4gs4kMMJwqjjkjpljNNNj",
"SFRRvmvCGnNANGAUFKCFA7qudapdd5:pww5w44s44s4gvvZZjgZ<wqqkp99qMkkd",
"xvKHCCCRPnnmBDBAPPAGGt6wqwwdqw05q574tq474s4sgvgssj#=jkjl99ZMMMjw",
"mFPSLNmRAnVhZnJLR~W~Gtd4:75kd9q%5<7w47q444<sstsgq=4FMdsZMZQRJZpp",
"RERRRRNCANFAZDPQRWWEPt8t3wdd9jw5:5q4<744s4@vVMMs4qkMMMssZZZ/Pqjk",
"FR(W~RUPWQRPZJVQ/KRWQdwtd:5pdMwr4;<<<7<;pt#4gvksggvjVZlqlZZj;AAl",
"IIWWGGUKURUUZMAW^KP^Qt<www515dqdsswd44tq4g4pMkMMMZFAJswkljplJUAN",
"GHPR~LKWQURURQJKRKKPRst8wwqq6waaMd5<7<<44q=jsMvgAMMAl4ssdwdNVNlA",
"FGEW~LL~~PRRRQPJWUWQWhdtu85wwwdaww5485<&<p=jgMZMZZPZwdZNMMkKJIAA",
"SR/~WWWUPUW^QPWJRRWWRttvlqr555wd:;qqw4t7;4#vMvJMKJJZ9jNdjdkdcZcN",
"IRWIUE~RJQ//RUUQQRUPWduldkdrap45d53q%%5555OwNklKKDJlaBMjaBrdKhah",
"EHEIUIRRUJQWURKUQPU/W58klljddd9,558u555:55@w4kjNZMAAlKJjMnlJ5$cA",
"EHRRURPRKWJJWQQRRUUKUf1hrlBkclddsd555w5855o3kMlAMkUKZDABaaZwraKJ",
"(EPPRUCKQQPUKUQ/WIPPPuw:qrNcdkddvd5qur::0:OjNAJNMjNPWAj36lrrTKAB",
"EEEWWnCH^URUPPU^WPUJLwww0fk5adwdhdwjuq15ad$jVJlVINlUWJNNhlMVVJnj",
"EEEICHRUPKUUKUURURRUTwdwdqd5rr5Ald5cw4aqpa3jjlsZKJNVNZVajacBINhr",
"EERGIUUKKKJZPKQAJQURIdd5kdwMj35Vduddd655pw3MMkllZJJa90aVZJhNWdhI",
"RHGGLZGJJJJKVFKZRUKRAwkdrldNljk955w85d;*99#VMaAlajajjNAVcVMNJQ!V",
"PGGCCFCGGGVCFAVAJPJPJw554j9pMjppw5i7w05www$Mkdllk55MlNVAZNABNTIN",
"EREWmnSGlCGCALAAZZNJFw55jp9jjpjpdqdw=9q595=Mkdww:55NVlNKNZBCJALn",
"X*<<&$&O$#$$&OO#=@=3# ==33333933q95;393933.95555:00w--$50wa0->>>",
"iC1*1167h5qNd<q<p39p4kUIUJPUR/WQ/QQ/RKJPPQw5kdkNlrr0q9dd9450waa0",
"hCuryulfwddw7u5qlqq5sK_/UQ//R//Q)QQ/KJPJNU*wlhnNkdddwrdaak66jaz6",
"uitt58uhuh5ww51uqq57=n/~_)/)Q^^W)Q^/UUUNvAqwllhll6wkda,wMkr8rawy",
"rufflt<6w178:8q6O%5<<NR)'__)^Q^^/^UQUJJJFG4tuhddhwfw0wrhcaafar8z",
"yr628$2t55wqw1::55<5:J^)_)//)QW!)WPRQUZJLI<qtdgwkddd:rdanlrf0wzx",
"8r<6618drt6tdi7t5d:*$N!___QW/)~!QWKPUWAKIUtwhvvtddlr8fnldci8defi",
"6u1<1ddf88d5<<6t55d5+A!!/^^Q/_!WQQUUQUKJRQ68ihvfdldulghkfir8hhyi",
"2<22<2uuv66871:1*9r5-N^UUQQQ^!U)/QQ/QWWIHW85k8vvddkhhididkh6liil",
"<81<rt21td<<:1:<,w5:$NWWUUQQWU/`RJUQQQ!WGUhqvvlldufflnlnwdffhbix",
"1212r26ti6<5t5:1,w,:5BQWTWQIU)`)/JJ_^^TJGWughhvhhhhlnlhduhuwimxi",
"<r<<t88hhw5ih6:**5r5:C^TUQ/WW//W/QUQ~QWUKGwlhchyihlnhinfhiwdihex",
"112861r8:11l5%&:a50r%B!IIT^//WHUWWQU~UUIWUuhNllinffuihnyifyhlehe",
"2*2%%r621::*:2:*5r5%*AIIGDUYWWTULQQ!UUUT^/ddwcAfndfhvlvhutuh22hy",
"20$>rir625188:X1,,-,%hIGGLTILTWYWW!TTT!!(!wlcnNcvmhinbrvChr82yvi",
"e2,0i666511511,:-+-,%NLDLKITIIT!!W//!Q!T^UwlNfilu8hhvvhfl2rrrbyy",
",>>ew,,u:>1116:%,354,NYLLGJTIL!/T/(/WQY!TW6rhcCxfivvfbvu86yryii2",
">>r22eu>>>%8wq%8,55>%cKLYTYILL!(/(WWYLKKKK68dhhf8tfdivuutwyrbbii",
",eir>2r>2*++%5:%r,01>xYSYQYYYLY!^!TY!ITYKSwlxlnyivhwhur8uriibyii",
">iz,e86,>11%8%1+>>0y>zYSCTYYY^W/TT^WKT!QKS6hlhN6Cmiir2hyr8y2ii2z",
">eeiir26i51**X%++$>2$xDYAYYT!((^^!^TILY(IS8fxmnibli1<22282e2bb2z",
",e>eeii22+1>%+%X$++e,DYSDTTYT!^T!YT!IKYTSIbccxymmniiy2iviy22zyyz"
};
