/* XPM */
static char *result[] = {
/* columns rows colors chars-per-pixel */
"64 64 202 2 ",
"   c #010101",
".  c #0B0B0C",
"X  c #1A0E05",
"o  c #1E1100",
"O  c #181718",
"+  c #250D00",
"@  c #2E0900",
"#  c #360E00",
"$  c #3B0E00",
"%  c #261105",
"&  c #2D1300",
"*  c #331200",
"=  c #3B1400",
"-  c #3C1A00",
";  c #3B1E16",
":  c #3A2600",
">  c #3D2A00",
",  c #3E221B",
"<  c #242527",
"1  c #3D2B2B",
"2  c #363436",
"3  c #460500",
"4  c #4B0600",
"5  c #440D00",
"6  c #4A0A00",
"7  c #451200",
"8  c #4B1300",
"9  c #441B00",
"0  c #4B1C00",
"q  c #491B0A",
"w  c #521400",
"e  c #531D00",
"r  c #5C1A00",
"t  c #561508",
"y  c #5C150A",
"u  c #551312",
"i  c #670E09",
"p  c #720300",
"a  c #7B0700",
"s  c #760E00",
"d  c #790A00",
"f  c #651502",
"g  c #6C1500",
"h  c #611801",
"j  c #62120A",
"k  c #731200",
"l  c #7D1600",
"z  c #761800",
"x  c #7B1900",
"c  c #452600",
"v  c #4B2500",
"b  c #452A00",
"n  c #4B2A00",
"m  c #532100",
"M  c #582700",
"N  c #532D00",
"B  c #5E2B00",
"V  c #4E3500",
"C  c #5C3700",
"Z  c #523B00",
"A  c #42231C",
"S  c #6A2500",
"D  c #652C00",
"F  c #6C2B00",
"G  c #722700",
"H  c #7B2500",
"J  c #742D00",
"K  c #7C2D00",
"L  c #603600",
"P  c #6C3100",
"I  c #613A00",
"U  c #733100",
"Y  c #793000",
"T  c #452622",
"R  c #452825",
"E  c #442F30",
"W  c #3C3E44",
"Q  c #3E4048",
"!  c #434548",
"~  c #515155",
"^  c #565C68",
"/  c #5C6674",
"(  c #67676A",
")  c #646C77",
"_  c #69717B",
"`  c #74757A",
"'  c #890600",
"]  c #8C0C00",
"[  c #940500",
"{  c #9C0600",
"}  c #930B00",
"|  c #9C0A00",
" . c #841400",
".. c #8A1300",
"X. c #841A00",
"o. c #8C1B00",
"O. c #911500",
"+. c #931D00",
"@. c #9B1B00",
"#. c #A70500",
"$. c #A10A00",
"%. c #AD0C00",
"&. c #B20700",
"*. c #B40C00",
"=. c #BD0E00",
"-. c #A31400",
";. c #AC1400",
":. c #A51E00",
">. c #AC1D00",
",. c #B51600",
"<. c #BB1300",
"1. c #B21A00",
"2. c #B81800",
"3. c #842500",
"4. c #8C2300",
"5. c #832D00",
"6. c #8C2B00",
"7. c #952600",
"8. c #9C2500",
"9. c #932900",
"0. c #992800",
"q. c #A32200",
"w. c #A92000",
"e. c #C10D00",
"r. c #A97A00",
"t. c #B07F00",
"y. c #C36600",
"u. c #C36B00",
"i. c #CD6D00",
"p. c #C37300",
"a. c #CD7300",
"s. c #C47C00",
"d. c #CD7C00",
"f. c #D17500",
"g. c #D07C00",
"h. c #AE8200",
"j. c #B08000",
"k. c #C48400",
"l. c #CD8400",
"z. c #C48C00",
"x. c #CD8B00",
"c. c #D08300",
"v. c #D08C00",
"b. c #C59200",
"n. c #CE9300",
"m. c #CF9A00",
"M. c #D19300",
"N. c #D19900",
"B. c #6E7584",
"V. c #747B86",
"C. c #7D828A",
"Z. c #7B8493",
"A. c #83858A",
"S. c #858B93",
"D. c #838A9C",
"F. c #898F9F",
"G. c #8D9299",
"H. c #96979A",
"J. c #868DA0",
"K. c #8692A3",
"L. c #8B93A4",
"P. c #8F9AAB",
"I. c #9097A2",
"U. c #959AA4",
"Y. c #969DAB",
"T. c #999FAC",
"R. c #98A0A9",
"E. c #9CA2AE",
"W. c #98A3B2",
"Q. c #9CA4B2",
"!. c #A4A7AA",
"~. c #A1A6B2",
"^. c #A5AAB5",
"/. c #A9ADB5",
"(. c #A5ADB9",
"). c #AAAFB9",
"_. c #AAB1B8",
"`. c #ACB2BD",
"'. c #B6B6B7",
"]. c #B2B6BE",
"[. c #AEB5C2",
"{. c #B2B6C1",
"}. c #B6BAC4",
"|. c #B9BCC4",
" X c #BBC0C3",
".X c #BEC2CA",
"XX c #C1C1C3",
"oX c #C3C6CC",
"OX c #C6C9CE",
"+X c #C5CBD3",
"@X c #CACDD3",
"#X c #CED1D6",
"$X c #CDD3D9",
"%X c #D2D3D6",
"&X c #D3D6DB",
"*X c #DADBDE",
"=X c #DCDEE1",
"-X c #DDE0E3",
";X c #E4E4E6",
":X c #E6E9EB",
">X c #E9EAEB",
",X c #EDF1F3",
/* pixels */
"Z Z Z Z o # $ $ 5 $ $ 5 $ 5 5 5 5 5 5 5 5 5 5 5 5 5 5 5 5 5 5 5 5 4 6 5 6 4 6 4 6 6 6 4 6 4 4 4 4 4 4 4 4 4 4 4 4 4 3 + V Z Z Z ",
"x.n.N.h.n 3.6.9.9.9.9.9.9.9.9.7.0.0.8.8.8.8.q.q.q.q.q.:.w.q.>.w.:.>.>.>.>.>.>.>.>.1.1.1.1.>.1.1.1.,.,.,.2.2.2.<.<.=.*.m j.v.n.n.",
"x.N.N.m.b F K 5.Y 5.Y 5.5.5.5.5.5.5.6.6.6.6.6.6.6.9.6.9.9.9.9.9.9.0.0.8.8.0.8.q.8.q.q.q.q.w.q.w.w.w.>.w.w.1.w.1.1.>.-.m k.v.N.N.",
"x.m.m.m.> - 9 c c 9 0 c c 0 c 0 0 0 c c 0 0 c 0 0 0 0 e e e e e e e e e r e r e r m r r r r r r r h r h h h h h f f r 9 k.v.M.N.",
"x.N.n.b.b r f f g g g g g g g g g g g k k g g k k k k k k k z k k k k k k s s s k d d d d d d a d d d d d a a a a a p 0 k.x.M.n.",
"x.v.m.b.n o.8.0.0.0.0.0.8.q.8.q.q.q.w.q.w.w.>.w.w.w.w.w.1.1.1.1.1.1.2.1.1.2.1.2.2.2.2.2.2.<.<.<.<.<.<.e.e.<.<.e.e.e.&.e s.x.x.n.",
"x.x.n.b.n H 6.6.6.9.9.9.9.9.9.9.0.0.0.0.8.8.8.q.q.q.q.q.q.q.q.q.w.w.w.w.w.w.>.1.w.1.1.1.1.1.1.1.1.1.1.1.1.2.2.2.<.<.%.m s.x.v.n.",
"l.M.n.b.n G 5.5.5.5.5.5.5.6.6.6.6.6.9.6.6.9.9.9.9.0.9.0.0.0.0.q.0.q.q.q.q.q.q.q.w.q.w.w.w.w.>.>.>.1.1.1.1.1.1.1.2.1.-.m s.l.v.n.",
"l.v.M.b.b D J J U Y Y Y K Y K K K 5.K K 5.5.5.5.5.5.6.5.6.6.6.6.9.6.7.9.9.9.7.7.7.7.8.8.8.8.8.8.8.8.q.q.q.:.q.w.w.>.@.e s.l.x.n.",
"l.v.M.b.b M D D D L D D D D D D F D D J F F F F G F J G J G G K K J H K H H H 5.3.3.H 3.3.3.3.4.4.4.6.4.4.4.4.7.+.7.o.0 p.l.x.x.",
"l.x.n.z.: # = = = $ = 5 = 7 7 = = 5 5 = 7 $ 5 5 7 5 5 5 5 5 5 5 5 5 5 5 5 5 5 5 5 6 6 6 5 6 6 6 4 6 4 6 6 6 4 4 6 4 5 - p.c.v.x.",
"l.v.n.z.v o.+.8.8.8.@.8.@.@.8.:.q.@.:.:.:.:.:.:.:.:.;.>.>.;.>.;.>.1.;.;.,.;.,.,.,.%.,.1.,.*.,.*.*.*.*.*.*.*.*.*.=.&.&.e p.l.v.x.",
"d.v.x.z.v 4.7.8.9.0.7.8.8.8.8.q.q.8.q.q.q.w.q.w.>.:.>.>.>.>.>.>.>.1.>.1.1.1.1.1.1.1.,.,.,.,.,.<.2.<.<.<.<.<.=.=.=.=.&.e p.d.v.x.",
"d.c.n.z.n H 6.6.9.6.9.9.9.9.9.9.7.7.8.8.8.8.8.q.8.q.8.q.q.q.q.:.:.>.>.>.>.>.>.>.1.>.1.>.1.1.1.>.1.,.1.,.,.,.,.2.<.<.%.e p.l.c.x.",
"d.c.x.z.n G 5.5.5.5.5.6.5.6.6.6.6.9.9.6.6.7.9.9.7.8.8.8.8.8.8.8.8.8.q.8.q.q.:.:.:.:.>.:.>.:.>.>.>.>.>.1.1.1.;.1.,.1.-.e p.d.c.l.",
"d.c.x.z.b F K 5.K K K 5.5.5.5.5.5.5.6.6.5.6.6.6.6.6.9.6.9.7.9.9.8.7.8.8.8.8.8.8.8.q.q.q.q.w.w.w.:.>.:.>.>.>.>.>.1.1.-.e p.d.c.l.",
"a.c.v.z.n S F Y U Y Y Y Y Y Y K K K K K K 5.5.5.5.5.5.5.6.6.6.6.6.6.9.6.9.9.9.9.0.9.8.9.0.q.8.8.8.q.8.q.w.q.w.w.w.:.@.e u.d.g.l.",
"a.c.c.z.b D P P P U U P U U U Y U Y Y Y Y Y Y Y K K 5.5.Y 5.5.5.5.5.6.5.6.6.6.6.6.6.9.9.9.9.9.0.8.0.0.8.8.8.8.8.q.q.+.0 u.g.g.l.",
"a.g.l.k.: - - - - - - - - - - 9 - 9 - 9 9 = 9 9 7 9 9 9 9 8 9 8 0 8 7 8 9 0 0 8 0 8 8 8 8 e w 8 8 w w w w w w w w w w 9 u.f.g.l.",
"a.c.l.z.c f z x z x x x x x x x x l  .l  . .l  .l  . . . . . ..... . .....] ] ] ] ] ] ] ] ] ] ' ] ] ] ] ' ] [ ] ] ' ' 8 u.a.g.l.",
"a.g.l.k.n 4.8.8.0.q.0.q.q.q.q.q.q.w.w.w.w.w.>.w.>.>.>.>.>.1.1.1.1.1.1.1.1.2.2.1.2.,.2.2.2.<.<.<.<.=.=.<.=.=.=.=.e.e.&.e u.a.g.l.",
"a.g.l.k.v 3.9.9.9.9.0.9.9.0.0.8.8.8.8.8.8.q.q.q.q.w.w.w.w.w.w.>.>.>.>.>.>.1.1.1.1.1.1.,.1.,.2.2.2.2.<.<.2.,.<.<.<.=.%.e u.a.g.d.",
"i.f.c.s.c H 5.6.6.5.6.6.6.6.6.6.6.9.9.9.7.8.9.8.8.8.8.8.8.8.q.8.8.:.w.q.:.:.:.>.:.>.>.>.>.>.>.>.>.>.1.1.1.,.1.1.2.<.;.e y.a.f.d.",
"i.g.d.s.b G K K 5.Y 5.5.5.5.6.5.5.6.6.6.6.6.6.6.6.9.7.9.9.8.9.8.8.8.8.8.8.q.8.8.q.q.q.w.:.:.>.>.>.>.>.>.>.>.;.1.1.;.-.e y.i.a.d.",
"i.f.g.l.c F J Y Y Y Y K Y K 5.Y 5.5.5.5.5.5.6.6.6.6.6.6.6.9.9.9.9.9.7.7.7.8.9.8.8.8.q.8.q.q.q.q.q.q.q.w.w.>.w.w.>.>.-.e u.i.f.g.",
"i.f.d.s.b D D U U U P Y U U Y Y J Y Y Y K K K H K H H 5.5.5.5.3.3.6.6.6.4.6.4.4.4.7.7.9.9.9.7.7.8.8.8.8.8.8.8.q.q.q.+.e y.i.f.f.",
"i.f.a.s.b B D P P D P P P P P P U P U U U J J U G J K J H K H H H 5.5.H 3.3.5.3.6.3.4.6.6.6.6.6.6.6.9.7.7.7.7.7.8.8.o.v y.i.i.a.",
"L I I C o & - = - - = = = = = = = = = = * , 1 A T T , A , , , ; , ; ; ; , A A A A T A $ 7 7 7 7 6 7 5 8 5 8 6 8 8 6 5 + B L I I ",
"r.t.h.h.> x X.o.X.3.o.o.o.o.o.o.o.+.O.O.u G.#XOX X]._.~.R.I.F.D.Z.B.V.Z.G.Q._. X@X+XS.t $.$.$.| | $.$.$.| $.$.$.#.#.[ 0 r.r.t.h.",
"v.N.N.b.n o.7.8.8.8.8.8.8.q.q.q.8.w.:.:.j /.,X:X&X@X.X}.`.(.W.P.K.L.W.(.|.@X-X>X:X:XR.j =.=.2.<.2.<.<.<.=.=.=.=.=.=.&.m k.n.N.n.",
"M.N.N.b.n 3.7.9.9.9.9.9.0.0.0.8.8.8.q.@.y !.:X*X@X.X}._.~.Q.F.B.B.Y.`.|.OX*X:X;X-X-XU.i ,.,.2.2.1.2.2.<.2.<.<.2.<.=.%.m k.M.N.N.",
"x.M.N.b.n J 5.5.5.5.6.6.6.6.6.6.6.9.7.7.t R.&X@X X`./.~.E.B.< . . W !.%X*X;X;X*X*X%XG.j ;.>.>.>.1.1.;.1.1.1.,.,.,.,.%.m k.x.v.n.",
"x.n.m.b.b G K 5.5.K 5.5.5.5.5.5.5.6.6.4.u H.#X.X].^.~.Y.Z.O         ! %X>X;X*X%X#X@XS.y :.:.w.w.:.:.>.>.>.>.>.>.1.1.$.m k.v.M.N.",
"x.n.n.b.b F J U U K Y Y Y K 5.5.5.5.5.5.q F.oX{./.~.Y.P.^           . '.>X=X%X#X+X+XS.y :.q.q.q.w.q.q.w.:.w.>.>.>.>.:.m t.v.v.n.",
"x.n.m.b.b D P U U U U U U Y Y U J Y J K q S.}.[.~.U.L.J.~             !.;X*X@XOXoX.XZ.y 7.7.8.7.7.8.8.8.8.q.8.q.w.:.+.m s.l.M.n.",
"x.v.n.b.b B P P P P P P U P P P U U U U q C.[.~.U.J.D.P.V..         < OX*X%XOXXX.X}.C.q 6.4.6.9.9.9.9.9.9.9.8.0.8.8.o.v s.x.M.x.",
"l.M.n.b.: * = - - - * - = - = = = = = = % V.).Y.J.Z.D.T.).( O     O H.=X%XOXXX|.}.{.V.@ 7 8 8 7 7 7 7 8 8 5 8 6 8 6 5 : s.v.v.n.",
"x.v.n.b.c l x X.X.X.X.X.X.o.X.o.o.o.o.o.6 B.W.L.D.D.U./.XX%XA.  . !.=X%XoXXX|.].[.(.V.t | | | | | | | | | | { | #.{ [ e s.x.v.n.",
"x.v.M.b.n 4.0.8.0.0.0.8.8.8.q.q.q.w.>.>.i B.L.D.D.U.^.{.%X;XH.. . '.=X@X.X|.].).).^.B.i <.<.2.<.2.<.=.=.=.=.=.=.e.=.&.e s.l.v.x.",
"l.v.n.z.n 3.4.9.9.9.0.0.0.0.0.0.8.8.8.q.y / J.J.U.^.{.@X=X>X(     C.%XOX|.].).^.Q.W._ i ,.2.2.2.,.2.2.2.2.<.<.<.<.=.%.e p.l.v.n.",
"l.x.n.z.n H 5.5.6.5.6.6.6.6.6.9.6.7.7.7.t / K.Y./.].OX=X>X=X2     ~ oX|.{.).^.~.T.Y.) y 1.>.1.1.;.>.>.1.1.,.1.1.2.<.-.e p.l.v.x.",
"l.v.n.z.b G K 5.Y 5.5.5.5.5.5.6.5.6.6.6.q ) W.[.|.OX*X>X>XXX<     2 ].|.].^.E.E.T.Y./ y >.:.:.:.>.>.>.>.>.>.;.>.1.;.-.m p.l.v.x.",
"d.v.x.z.b G J K Y Y Y Y K K 5.K 5.5.5.6.t ! Y..X%X-X;X;X;XH..     O H.}.).~.E.Y.P.Z.W j q.q.q.q.q.w.w.w.:.w.w.w.>.>.@.e p.d.v.x.",
"l.c.x.b.b D P U U U U U U Y U Y Y Y Y K J e 1 C.&X,X>X;X*X`   .   . B.].(.W.W.L.^ 1 f 7.0.0.7.0.8.8.8.8.8.q.q.q.w.q.@.e p.l.l.x.",
"d.v.v.z.b B P P P P P P U P P U U U U J Y Y S q ! !.-X;X&X!.` ` ` ) F.(.Q.P._ 2 q H 9.6.6.6.6.9.9.6.9.9.8.8.7.8.8.8.+.v p.l.l.x.",
"d.c.v.z.: & - - - - - * - = - - = - - - - 9 = = @ O ~ _.$X+X+X.X|.].[.Q.Z.Q . # 7 8 8 8 8 0 8 8 8 8 8 8 8 8 8 8 8 8 6 - a.d.c.x.",
"d.c.x.z.n k z x X.X.x X.X.X.X.X.X. . .X.o...o.......] T ( (..X|.{.(.K.~ A ' } } } } } } } } } } } } } } } } { [ | [ ' w p.d.c.l.",
"d.c.x.z.n 4.0.8.8.8.8.8.q.8.q.q.q.q.q.w.w.w.w.w.1.>.;.-.s R ) Q.Q./ T d *.<.1.2.2.2.2.2.2.2.<.<.<.<.e.<.=.<.=.e.e.e.&.e p.d.c.l.",
"d.c.l.z.n 3.4.9.9.9.9.9.9.0.8.8.0.8.8.8.q.8.q.q.q.w.q.w.>.@.i E E j -.1.>.>.1.1.>.1.1.1.1.,.1.,.2.,.2.<.<.<.<.=.<.=.%.e u.d.c.l.",
"d.c.v.k.n H 5.5.5.6.6.6.6.6.6.6.9.9.9.9.9.9.9.8.7.8.8.8.8.q.:.o.o.:.:.w.w.w.w.:.>.>.>.>.>.>.>.>.1.1.>.1.1.1.>.1.,.,.-.e u.d.g.l.",
"d.c.l.k.b S K 5.5.K 5.5.5.5.5.6.6.5.6.6.6.6.9.6.6.9.6.7.9.0.8.8.8.8.8.8.8.8.8.q.q.q.q.q.>.w.:.w.:.>.>.>.>.>.>.>.1.1.-.e u.a.c.l.",
"a.g.l.z.b F Y Y Y Y K Y Y Y 5.K Y 5.5.5.6.5.5.6.6.6.6.6.6.9.6.9.9.7.9.9.7.8.9.8.8.8.q.8.8.8.q.q.q.q.:.:.w.w.>.w.>.>.-.e p.a.g.l.",
"a.g.l.k.b D P U P U U Y Y Y Y Y Y Y Y Y 5.Y K K Y 5.5.5.5.5.5.6.6.6.6.6.6.6.9.9.6.7.9.7.7.8.9.8.8.8.8.8.q.q.q.q.w.w.+.e y.a.d.l.",
"a.g.l.k.b B D P P P P P P P P P F P U J U U J U Y J J J K Y J K K K K K 5.5.5.5.5.5.6.5.6.6.6.6.6.6.6.9.4.9.7.7.7.7.o.e u.a.g.l.",
"a.g.c.l.: + % & & & & & & & & & & & & & & & * & & * & # * * & * * # # * * * * = * * # # # * # $ $ $ $ # = $ $ $ $ $ # = u.f.g.d.",
"a.g.l.k.c g l x x x x x l x  .l X. . . . . . ... ... ... .....] ......] ] ..] ] ] } ] ] ] } ] } } ] ] [ ] [ ' [ [ [ ' 0 y.a.g.d.",
"a.g.l.k.n 4.0.q.8.8.8.q.q.q.q.q.w.q.w.q.w.w.w.w.>.w.>.>.1.1.1.1.1.1.1.1.2.1.2.2.2.2.2.<.2.<.<.<.<.<.=.=.<.e.=.=.e.=.&.e y.a.f.d.",
"i.f.d.s.v 3.9.9.9.9.0.9.9.0.0.0.0.8.8.q.q.q.q.q.q.w.w.w.w.w.w.w.>.>.>.>.1.1.1.1.1.1.1.,.1.2.2.2.<.2.2.2.<.<.<.<.e.<.&.e y.a.f.d.",
"a.f.d.k.n H 5.5.5.6.6.6.6.6.9.6.9.9.9.9.9.0.0.7.0.8.8.8.0.8.q.q.q.q.q.:.w.:.w.w.>.:.>.>.>.>.>.>.1.1.1.1.1.1.,.,.1.<.-.e y.a.f.d.",
"i.f.d.s.n S K 5.K 5.K 5.5.5.5.6.5.6.6.6.6.6.6.9.9.9.7.9.9.0.9.9.8.7.8.8.8.8.q.8.q.q.q.:.>.:.>.:.:.>.>.>.>.>.>.>.1.1.-.e y.i.f.a.",
"i.f.g.d.c F J Y Y Y Y Y Y Y 5.5.K 5.5.5.6.5.5.6.6.5.6.6.6.9.9.9.9.9.9.9.7.8.0.8.8.8.8.8.q.8.q.q.w.q.q.w.:.w.>.w.>.>.@.e y.i.f.g.",
"i.f.g.s.b D F U U U Y U Y Y Y Y Y Y Y K Y K K K 5.5.5.5.5.5.5.6.6.6.6.6.6.6.6.9.9.7.9.9.9.7.8.8.8.8.8.8.8.8.q.q.w.:.@.e u.i.f.f.",
"i.a.d.s.b B L P P P P P P P P P P U U U Y U Y Y J Y Y K K K K K Y 5.5.H 5.5.5.5.5.5.6.6.6.6.6.6.6.7.9.7.7.7.7.8.8.7.+.0 y.i.i.a.",
"N N N N o + & & % & & & & & & & & & & & & & & & & & * & & * * & * * * * * # * * # * # = * # # = # * $ * $ $ = $ = $ # X v N N N "
};
