/* XPM */
static char *result[] = {
/* columns rows colors chars-per-pixel */
"64 64 128 2 ",
"   c #000000",
".  c #0C0C0C",
"X  c #151515",
"o  c gray11",
"O  c #222222",
"+  c None",
"@  c #33373A",
"#  c #33393D",
"$  c #393939",
"%  c #343C42",
"&  c #343F48",
"*  c #34424C",
"=  c #344653",
"-  c #344857",
";  c #344B5B",
":  c #344F62",
">  c #345166",
",  c #34556C",
"<  c #345973",
"1  c #345E7B",
"2  c #464646",
"3  c gray31",
"4  c #535353",
"5  c #646464",
"6  c #767676",
"7  c #7D7D7D",
"8  c #BF344F",
"9  c #BD3652",
"0  c #B93856",
"q  c #B53C5B",
"w  c #B03F60",
"e  c #C52F48",
"r  c #C3314B",
"t  c #9C4F77",
"y  c #AC4365",
"u  c #A7476A",
"i  c #A94669",
"p  c #A34A6F",
"a  c #B04061",
"s  c #A14B71",
"d  c #346283",
"f  c #34668A",
"g  c #34688E",
"h  c #346B93",
"j  c #346E98",
"k  c #34719D",
"l  c #3475A3",
"z  c #347BAD",
"x  c #347EB4",
"c  c #7F6597",
"v  c #7C679A",
"b  c #7A699D",
"n  c #5E7FBD",
"m  c #736EA5",
"M  c #6C74AD",
"N  c #6777B2",
"B  c #6876B1",
"V  c #6579B5",
"C  c #617CB9",
"Z  c #8E5A87",
"A  c #8B5C8B",
"S  c #86608F",
"D  c #826395",
"F  c #3480B7",
"G  c #3483BB",
"H  c #5C80BF",
"J  c #3486C2",
"K  c #3488C5",
"L  c #348CCB",
"P  c #348FD1",
"I  c #3492D5",
"U  c #3496DD",
"Y  c #3F96DF",
"T  c #3F96E0",
"R  c #3499E3",
"E  c #3B9AE5",
"W  c #339FED",
"Q  c #33A0EF",
"!  c #3AA2EE",
"~  c #33A1F0",
"^  c #4F8ACE",
"/  c #5982C3",
"(  c #5486C8",
")  c #5188CB",
"_  c #4A8ED4",
"`  c #4393DB",
"'  c #43A6EE",
"]  c #47A8EE",
"[  c #49A9EF",
"{  c #50ACEF",
"}  c #56AFF0",
"|  c #5AB1F0",
" . c #66B7F1",
".. c #6DBAF1",
"X. c #76BEF2",
"o. c #7BC0F2",
"O. c #868686",
"+. c #979797",
"@. c #9D9D9D",
"#. c #A3A3A3",
"$. c gray67",
"%. c #B2B2B2",
"&. c gray73",
"*. c #84C4F3",
"=. c #8AC7F3",
"-. c #8FC9F4",
";. c #93CBF4",
":. c #9BCFF4",
">. c #A4D3F5",
",. c #AAD6F6",
"<. c #B1D9F6",
"1. c #BADEF7",
"2. c #CACACA",
"3. c #D5D5D5",
"4. c #DDDDDD",
"5. c #C2E1F7",
"6. c #C7E3F8",
"7. c #CDE6F8",
"8. c #D6EAF9",
"9. c #DDEDF9",
"0. c #E9E9E9",
"q. c #E1EFF9",
"w. c #E4F1F9",
"e. c #ECF4FA",
"r. c #F5F5F5",
"t. c #F1F6FA",
"y. c #F6F9FB",
"u. c #FEFEFD",
/* pixels */
"+ + + + + + + + + + + + + + + + + + + + + + + + + + + + + + + + + + + + + + + + + + + + + + + + + + + + + + + + + + + + + + + + ",
"+ + + + + + + + + + + + + + + + + + + + + + + + + + + + + + + + + + + + + + + + + + + + + + + + + + + + + + + + + + + + + + + + ",
"+ + + + + + + + + + + + + + + + + + + + + + + + + + + + + + + + + + + + + + + + + + + + + + + + + + + + + + + + + + + + + + + + ",
"+ + + + + + + + + + + + + + + + + + + + + + + + + + + + + + + + + + + + + + + + + + + + + + + + + + + + + + + + + + + + + + + + ",
"+ + + + + + + + + + + + + + + + + + + + + + + + + + + + + + @ < d & + + + + + + + + + + + + + + + + + + + + + + + + + + + + + + ",
"+ + + + + + + + + + + + + + + + + + + + + + + + + + + + + + d W W z + + + + + + + + + + + + + + + + + + + + + + + + + + + + + + ",
"+ + + + + + + + + + + + + + + + + + + + + + + + + + + + + & L Q W R : + + + + + + + + + + + + + + + + + + + + + + + + + + + + + ",
"+ + + + + + + + + + + + + + + + + + + + + + + + + + + + + , W W W W h + + + + + + + + + + + + + + + + + + + + + + + + + + + + + ",
"+ + + + + + + + + + + + + + + + + + + + + + + + + + + + + j ~ W W ~ J @ + + + + + + + + + + + + + + + + + + + + + + + + + + + + ",
"+ + + + + + + + + + + + + + + + + + + + + + + + + + + + @ J ~ W W Q U = + + + + + + + + + + + + + + + + + + + + + + + + + + + + ",
"+ + + + + + + + + + + + + + + + + + + + + + + + + + + + = R Q W Q Q W 1 + + + + + + + + + + + + + + + + + + + + + + + + + + + + ",
"+ + + + + + + + + + + + + + + + + + + + + + + + + + + + d W W W W Q ~ l + + + + + + + + + + + + + + + + + + + + + + + + + + + + ",
"+ + + + + + + + + + + + + + + + + + + + + + + + + + + + x ~ W W W W Q I * + + + + + + + + + + + + + + + + + + + + + + + + + + + ",
"+ + + + + + + + + + + + + + + + + + + + + + + + + + + = U ~ W W W W W W < + + + + + + + + + + + + + + + + + + + + + + + + + + + ",
"+ + + + + + + + + + + + + + + + + + + + + + + + + + + g W W W W W W W ~ x @ + + + + + + + + + + + + + + + + + + + + + + + + + + ",
"+ + + + + + + + + + + + + + + + + + + + + + + + + + * L ! W W W W W W W E > + + + + + + + + + + + + + + + + + + + + + + + + + + ",
"+ + + + + + + + + + + + + + + + + + + + + + + + + + g W W W W W W W W W Q x + + + + + + + + + + + + + + + + + + + + + + + + + + ",
"+ + + + + + + + + + + + + + + + + + + + + + + + + ; I Q W W W W W Q W W W W 1 + + + + + + + + + + + + + + + + + + + + + + + + + ",
"+ + + + + + + + + + + + + + + + + + + + + + + + & G Q W W W Q W W W W W W Q I ; + + + + + + + + + + + + + + + + + + + + + + + + ",
"+ + + + + + + + + + + + + + + + + + + + + + + % l W W W W W W W W W W W W W Q K * + + + + + + + + + + + + + + + + + + + + + + + ",
"+ + + + + + + + + + + + + + + + + + + + + + * z W Q W W W W W W W W W W W W W Q K : + + + + + + + + + + + + + + + + + + + + + + ",
"+ + + + + + + + + + + + + + + + + + + + * d P ~ W W W W W W W W W W W W W W W W ~ R k - + + + + + + + + + + + + + + + + + + + + ",
"+ + + + + + + + + + + + + + + + + + ; l I W ~ W W W W W W W W W W Q W W W W W W W Q W U x , # + + + + + + + + + + + + + + + + + ",
"+ + + + + + + + + + + + + + + + = l R ~ W W W W W W W W W W W W W W W W W W W W W W Q Q ~ R G > @ + + + + + + + + + + + + + + + ",
"+ + + + + + + + + + + + + + + 1 I Q W W W W W W W W W W W W W W W W W W W W W W W W W W W W ~ R j % + + + + + + + + + + + + + + ",
"+ + + + + + + + + + + + + % l R ~ W W W W W W W W W W Q W W W W W W W W W Q W W W W W W W W W Q W G = + + + + + + + + + + + + + ",
"+ + + + + + + + + + + + = G ~ W W W W W W W W W W W W W W W W W W W W W W W W W W W W W W W W W W W P > + + + + + + + + + + + + ",
"+ + + + + + + + + + + - K ~ W W W W W W W W W W W W W W W W W W W W W W W W W W W W W W W W W W W W W U < + + + + + + + + + + + ",
"+ + + + + + + + + + - L W W W W W W Q W W W W W W W W W W W W W W W W W W W W W W W W W W W W W W W W ~ U < + + + + + + + + + + ",
"+ + + + + + + + + & J ~ W W W W W W W W W W W W W W W W W W W W W W W W W W ! W W W W W W W W W W W W W Q U ; + + + + + + + + + ",
"+ + + + + + + + + k Q W W W W W W W W W W W W W W W W W W W W W W W W W W W W W W W W W W W W W W W W W W ~ G & + + + + + + + + ",
"+ + + + + + + + ; R Q W W W W W W W W W W W W W ! ] ] Q W W W W W W W W W ] ] ! W W W W W W W W W W W W W W W d + + + + + + + + ",
"+ + + + + + + + l ~ W W W W W W W W W W W Q ! o.5.9.9.1...! W W W W W } ,.8.9.7.-.' W W W W W W W W W W W W Q K % + + + + + + + ",
"+ + + + + + + * I Q W W W W W W W W W W W ! :.y.u.u.u.u.t.;.Q Q W W X.q.u.u.u.u.u.6.] W W W W W W W W W W W W R > + + + + + + + ",
"+ + + + + + + > W W W W W W W W W W W W W o.y.u.2.7 O.3.u.t...W W ] 8.u.0.+.6 %.r.u.>.Q W W W W W W W W W W W Q h + + + + + + + ",
"+ + + + + + + f W W W W Q W W W W W W W ! 6.u.2.O     $ 4.u.<.Q W *.u.r.5     . @.u.w.{ W W W W W W W W W W Q Q x + + + + + + + ",
"+ + + + + + + l Q W W W Q W W W W W W W ] w.u.7         #.u.8.! W >.u.3.X       2 r.y. .W W W W W W W W W W W Q K # + + + + + + ",
"+ + + + + + @ G Q W W W W W W W W W W W ] 9.u.O.        $.u.6.! W >.u.3.o       4 r.y. .W W W W W W W W W W W Q U * + + + + + + ",
"+ + + + + + # K ! W W W W W W W W W W W ! 1.u.3.$     4 0.u.>.W W o.y.y.7 .   o %.u.9.' W W W W W W W W W W W Q U = + + + + + + ",
"+ + + + + + # K W W W W W W W W W W W W W ..t.y.0.#.$.0.u.w.| W W ' 6.u.r.&.@.2.y.u.;.W W W W W W W W W Q W W W R ; + + + + + + ",
"+ + + + + + % L ~ W W W W W W W W W W W W Q =.e.u.u.u.u.w.X.W W W W { 7.u.u.u.u.y.,.' W W Q W W W W Q W W W W W R ; + + + + + + ",
"+ + + + + + # K ~ W W W W W W W W W W W W W W  .>.5.5.:.{ W W W W W W ] =.1.6.<.X.! W W W W W W W W W W W W W W U = + + + + + + ",
"+ + + + + + + G ~ W W W W W W W W W W W W W W W W ! Q W W W W W W W Q W W Q ! Q W W W W W W W W W W W W W W Q Q I * + + + + + + ",
"+ + + + + + + k ~ W W W W W W W W W W W Q Q Q W W W W W Q W W W W W W W W W W Q W Q Q Q Q W W W W W W W W W Q ~ K # + + + + + + ",
"+ + + + + + + < W W W W W W W W W W Q E N v n ` Q Q W W W W W W W W Q W W W Q Q R / b m ` ~ W W W W W W W W W ~ k + + + + + + + ",
"+ + + + + + + * I W W W W W W W W W ~ ^ 0 r 8 u m _ W Q Q W W W Q Q Q Q Q W Y V t 0 e e M ~ W W W W W W W W W R , + + + + + + + ",
"+ + + + + + + + l W W W W W W W W W W E A 8 e e r y Z m n ( _ ` ` _ ^ H M S u 8 e r r t _ Q W W W W W W W W Q K # + + + + + + + ",
"+ + + + + + + + ; U ~ W W W W W W W W Q R M p 9 r r r r r 0 q w w q 0 8 8 e e e 8 y b ` ~ W W W W W Q W W W ! 1 + + + + + + + + ",
"+ + + + + + + + + h W W W W W W W W W W W Q T H D p q 9 8 r r e e e e r r 0 y Z B ` Q Q W W W W W W W W Q ~ x # + + + + + + + + ",
"+ + + + + + + + + # x W W W W W W W W W W W W Q W T _ H M b c D D c v M H ) T W Q Q W W W Q W W W W W W ~ L = + + + + + + + + + ",
"+ + + + + + + + + + * G Q W W W W W W W W W W W W W Q Q ~ Q Q ~ Q Q Q Q ~ ~ Q W Q Q W W W W W W W W W Q I : + + + + + + + + + + ",
"+ + + + + + + + + + + * x W Q W W W W W W W W W W W W Q W W W W W Q W Q Q Q W W W W W W W W W W Q W Q L ; + + + + + + + + + + + ",
"+ + + + + + + + + + + + # j R ~ W W W W W W W W W W W W W W W W W W W W W W W W W W W W W W W W Q W z * + + + + + + + + + + + + ",
"+ + + + + + + + + + + + + + > G W Q W W W W W W W Q Q W W W W W W W W W W W Q W W W W W W Q Q W L 1 @ + + + + + + + + + + + + + ",
"+ + + + + + + + + + + + + + + # < F R Q W Q ! W W W W W W W W W Q W W W W W W Q Q Q W Q ~ E J d * + + + + + + + + + + + + + + + ",
"+ + + + + + + + + + + + + + + + + # - h J U W ! Q Q Q Q W W W W W W W W Q Q Q Q Q Q R K k , # + + + + + + + + + + + + + + + + + ",
"+ + + + + + + + + + + + + + + + + + + + # - < g z J I I U R R R R R R R U I K F k 1 ; % + + + + + + + + + + + + + + + + + + + + ",
"+ + + + + + + + + + + + + + + + + + + + + + + + + # * * - ; ; ; ; - ; - * * % + + + + + + + + + + + + + + + + + + + + + + + + + ",
"+ + + + + + + + + + + + + + + + + + + + + + + + + + + + + + + + + + + + + + + + + + + + + + + + + + + + + + + + + + + + + + + + ",
"+ + + + + + + + + + + + + + + + + + + + + + + + + + + + + + + + + + + + + + + + + + + + + + + + + + + + + + + + + + + + + + + + ",
"+ + + + + + + + + + + + + + + + + + + + + + + + + + + + + + + + + + + + + + + + + + + + + + + + + + + + + + + + + + + + + + + + ",
"+ + + + + + + + + + + + + + + + + + + + + + + + + + + + + + + + + + + + + + + + + + + + + + + + + + + + + + + + + + + + + + + + ",
"+ + + + + + + + + + + + + + + + + + + + + + + + + + + + + + + + + + + + + + + + + + + + + + + + + + + + + + + + + + + + + + + + ",
"+ + + + + + + + + + + + + + + + + + + + + + + + + + + + + + + + + + + + + + + + + + + + + + + + + + + + + + + + + + + + + + + + "
};
