/* XPM */
static char *_74d458fb2f849c5a856807f1b15b8a2T6G1CPJHqOtqgp4z[] = {
/* columns rows colors chars-per-pixel */
"64 64 104 2 ",
"   c black",
".  c None",
"X  c #5A483C",
"o  c #695446",
"O  c #685345",
"+  c #5C493D",
"@  c #0C0908",
"#  c #685345",
"$  c black",
"%  c #665042",
"&  c #593D28",
"*  c #563923",
"=  c #573923",
"-  c #4C331F",
";  c #0A0704",
":  c #5B483C",
">  c #675142",
",  c #583C27",
"<  c #4C321F",
"1  c #0B0704",
"2  c #0A0604",
"3  c #0C0A08",
"4  c #675141",
"5  c #4B321F",
"6  c #090604",
"7  c #0D0A09",
"8  c #5C4A3D",
"9  c #675041",
"0  c #4A311E",
"q  c #0A0807",
"w  c #584538",
"e  c #675142",
"r  c #665042",
"t  c #5A473A",
"y  c #0C0907",
"u  c #090604",
"i  c #4C3422",
"p  c #593D28",
"a  c #4E3523",
"s  c #0A0704",
"d  c #4A311E",
"f  c #573923",
"g  c #563923",
"h  c #4B321F",
"j  c #0A0604",
"k  c #573A23",
"l  c #4C321F",
"z  c #4B311E",
"x  c #573A24",
"c  c #080503",
"v  c #422C1B",
"b  c #4D331F",
"n  c #4C331F",
"m  c #432D1B",
"M  c black",
"N  c #090603",
"B  c #0B0704",
"V  c #010000",
"C  c #0C0908",
"Z  c #0B0907",
"A  c #010101",
"S  c #000001",
"D  c #090806",
"F  c #5B483C",
"G  c #5B493D",
"H  c #504036",
"J  c #090706",
"K  c #4F3F34",
"L  c #4F3F35",
"P  c #504035",
"I  c #685142",
"U  c #5B483A",
"Y  c #0D0A08",
"T  c #0B0807",
"R  c #5A4639",
"E  c #0C0A08",
"W  c #5B473A",
"Q  c #583C27",
"!  c #4E3623",
"~  c #0B0705",
"^  c #4D3522",
"/  c #0A0705",
"(  c #4B321E",
")  c #5C4A3D",
"_  c #5C493D",
"`  c #514036",
"'  c #675141",
"]  c #593D27",
"[  c #4E3522",
"{  c #412B1A",
"}  c #080603",
"|  c #0D0A09",
" . c #5D4A3E",
".. c #524136",
"X. c #0B0908",
"o. c #0A0806",
"O. c #514136",
"+. c #675041",
"@. c #594639",
"#. c #593C27",
"$. c #4D3422",
"%. c #412B1B",
"&. c #010100",
"*. c white",
/* pixels */
"  . X o O O O O O O O O O O O O O O O O O O O O O O O O O O o + @ @ + o O O O O O O O O O O O O O O O O O O O O O O O O O O O # ",
"$ q w e r r r r r r r r r r r r r r r r r r r r r r r r r r e t y y t e r r r r r r r r r r r r r r r r r r r r r r r r r r r % ",
"$ u i p p p p p p p p p p p p p p p p p p p p p p p p p p p p a s s a p p p p p p p p p p p p p p p p p p p p p p p p p p p p & ",
"$ u d f g g g g g g g g g g g g g g g g g g g g g g g g g g f h j j h f g g g g g g g g g g g g g g g g g g g g g g g g g g g * ",
"$ u d k g g g g g g g g g g g g g g g g g g g g g g g g g g f l j j l f g g g g g g g g g g g g g g g g g g g g g g g g g g g * ",
"$ u d k g g g g g g g g g g g g g g g g g g g g g g g g g g f l j j l f g g g g g g g g g g g g g g g g g g g g g g g g g g g * ",
"$ u d k g g g g g g g g g g g g g g g g g g g g g g g g g g f l j j l f g g g g g g g g g g g g g g g g g g g g g g g g g g g * ",
"$ u d k g g g g g g g g g g g g g g g g g g g g g g g g g g f l j j l f g g g g g g g g g g g g g g g g g g g g g g g g g g g * ",
"$ u d k g g g g g g g g g g g g g g g g g g g g g g g g g g f l j j l f g g g g g g g g g g g g g g g g g g g g g g g g g g g * ",
"$ u d k g g g g g g g g g g g g g g g g g g g g g g g g g g f l j j l f g g g g g g g g g g g g g g g g g g g g g g g g g g g * ",
"$ u d k g g g g g g g g g g g g g g g g g g g g g g g g g g f l j j l f g g g g g g g g g g g g g g g g g g g g g g g g g g g * ",
"$ u d k g g g g g g g g g g g g g g g g g g g g g g g g g g f l j j l f g g g g g g g g g g g g g g g g g g g g g g g g g g g * ",
"$ u z x f f f f f f f f f f f f f f f f f f f f f f f f f f x l j j l x f f f f f f f f f f f f f f f f f f f f f f f f f f f = ",
"$ c v b n n n n n n n n n n n n n n n n n n n n n n n n n n b m u u m b n n n n n n n n n n n n n n n n n n n n n n n n n n n - ",
"$ M N B s s s s s s s s s s s s B B B s s s s s s s s s s s s N V V N s s s s s s s s s s s s s B B s s s s s s s s s s s s s ; ",
"@ C Z Z Z Z Z Z Z Z Z Z Z Z Z q A S D Z Z Z Z Z Z Z Z Z Z Z Z Z C C Z Z Z Z Z Z Z Z Z Z Z Z Z D A A q Z Z Z Z Z Z Z Z Z Z Z Z . ",
": F F F F F F F F F F F F F G H Z J K G F F F F F F F F F F F F F F F F F F F F F F F F F F G L q Z P G F F F F F F F F F F F : ",
"> e e e e e e e e e e e e e I U Y T R I e e e e e e e e e e e e e e e e e e e e e e e e e e I t Z E W I e e e e e e e e e e e > ",
", Q Q Q Q Q Q Q Q Q Q Q Q Q p ! ~ u ^ p Q Q Q Q Q Q Q Q Q Q Q Q Q Q Q Q Q Q Q Q Q Q Q Q Q Q p ^ s / a p Q Q Q Q Q Q Q Q Q Q Q , ",
"* g g g g g g g g g g g g g g l B u z f g g g g g g g g g g g g g g g g g g g g g g g g g g f ( u s l g g g g g g g g g g g g * ",
"* g g g g g g g g g g g g g f n B u ( f g g g g g g g g g g g g g g g g g g g g g g g g g g f h u s l f g g g g g g g g g g g * ",
"* g g g g g g g g g g g g g f n B u ( f g g g g g g g g g g g g g g g g g g g g g g g g g g f h u s l f g g g g g g g g g g g * ",
"* g g g g g g g g g g g g g f n B u ( f g g g g g g g g g g g g g g g g g g g g g g g g g g f h u s l f g g g g g g g g g g g * ",
"* g g g g g g g g g g g g g f n B u ( f g g g g g g g g g g g g g g g g g g g g g g g g g g f h u s l f g g g g g g g g g g g * ",
"* g g g g g g g g g g g g g f n B u ( f g g g g g g g g g g g g g g g g g g g g g g g g g g f h u s l f g g g g g g g g g g g * ",
"* g g g g g g g g g g g g g f n B u ( f g g g g g g g g g g g g g g g g g g g g g g g g g g f h u s l f g g g g g g g g g g g * ",
"* g g g g g g g g g g g g g f n B u ( f g g g g g g g g g g g g g g g g g g g g g g g g g g f h u s l f g g g g g g g g g g g * ",
"* g g g g g g g g g g g g g f n B u ( f g g g g g g g g g g g g g g g g g g g g g g g g g g f h u s l f g g g g g g g g g g g * ",
"= f f f f f f f f f f f f f x b B u h x f f f f f f f f f f f f f f f f f f f f f f f f f f x l u s b x f f f f f f f f f f f = ",
"< l l l l l l l l l l l l l b m u c v b l l l l l l l l l l l l l l l l l l l l l l l l l l b v c u m b l l l l l l l l l l l < ",
"1 B s j j j j j j j j j j j s N V M N s j j j j j j j j j j j s B B s j j j j j j j j j j j s N M M N s j j j j j j j j j j j 2 ",
"$ A q E E E E E E E E E E E E E E E E E E E E E E E E E E E E q A A q E E E E E E E E E E E E E E E E E E E E E E E E E E E E 3 ",
"$ D K ) _ _ _ _ _ _ _ _ _ _ _ _ _ _ _ _ _ _ _ _ _ _ _ _ _ _ ) ` q q ` ) _ _ _ _ _ _ _ _ _ _ _ _ _ _ _ _ _ _ _ _ _ _ _ _ _ _ _ + ",
"$ T w I ' ' ' ' ' ' ' ' ' ' ' ' ' ' ' ' ' ' ' ' ' ' ' ' ' ' e t y y t e ' ' ' ' ' ' ' ' ' ' ' ' ' ' ' ' ' ' ' ' ' ' ' ' ' ' ' 4 ",
"$ u i ] Q Q Q Q Q Q Q Q Q Q Q Q Q Q Q Q Q Q Q Q Q Q Q Q Q Q ] [ s s [ ] Q Q Q Q Q Q Q Q Q Q Q Q Q Q Q Q Q Q Q Q Q Q Q Q Q Q Q , ",
"$ u d f g g g g g g g g g g g g g g g g g g g g g g g g g g f l j j l f g g g g g g g g g g g g g g g g g g g g g g g g g g g * ",
"$ u d k g g g g g g g g g g g g g g g g g g g g g g g g g g f l j j l f g g g g g g g g g g g g g g g g g g g g g g g g g g g * ",
"$ u d k g g g g g g g g g g g g g g g g g g g g g g g g g g f l j j l f g g g g g g g g g g g g g g g g g g g g g g g g g g g * ",
"$ u d k g g g g g g g g g g g g g g g g g g g g g g g g g g f l j j l f g g g g g g g g g g g g g g g g g g g g g g g g g g g * ",
"$ u d k g g g g g g g g g g g g g g g g g g g g g g g g g g f l j j l f g g g g g g g g g g g g g g g g g g g g g g g g g g g * ",
"$ u d k g g g g g g g g g g g g g g g g g g g g g g g g g g f l j j l f g g g g g g g g g g g g g g g g g g g g g g g g g g g * ",
"$ u d k g g g g g g g g g g g g g g g g g g g g g g g g g g f l j j l f g g g g g g g g g g g g g g g g g g g g g g g g g g g * ",
"$ u d k g g g g g g g g g g g g g g g g g g g g g g g g g g f l j j l f g g g g g g g g g g g g g g g g g g g g g g g g g g g * ",
"$ u d k g g g g g g g g g g g g g g g g g g g g g g g g g g f l j j l f g g g g g g g g g g g g g g g g g g g g g g g g g g g * ",
"$ u z x f f f f f f f f f f f f f f f f f f f f f f f f f f x n j j n x f f f f f f f f f f f f f f f f f f f f f f f f f f f = ",
"$ c { l h h h h h h h h h h h h h h h h h h h h h h h h h h l v } } v l h h h h h h h h h h h h h h h h h h h h h h h h h h h 5 ",
"$ M c u u u u u u u u u u u u u s s u u u u u u u u u u u u u c M M c u u u u u u u u u u u u u s s u u u u u u u u u u u u u 6 ",
"7 | E E E E E E E E E E E E E Z A A Z E E E E E E E E E E E E E | | E E E E E E E E E E E E E Z A A Z E E E E E E E E E E E E 3 ",
"8 ) ) ) ) ) ) ) ) ) ) ) ) )  ...X.o.P  .) ) ) ) ) ) ) ) ) ) ) ) ) ) ) ) ) ) ) ) ) ) ) ) ) )  .` q Z O. .) ) ) ) ) ) ) ) ) ) ) 8 ",
"9 +.+.+.+.+.+.+.+.+.+.+.+.+.e W Y T @.e +.+.+.+.+.+.+.+.+.+.+.+.+.+.+.+.+.+.+.+.+.+.+.+.+.+.e R Z C W e +.+.+.+.+.+.+.+.+.+.+.9 ",
", Q Q Q Q Q Q Q Q Q Q Q Q Q #.a ~ u $.] Q Q Q Q Q Q Q Q Q Q Q Q Q Q Q Q Q Q Q Q Q Q Q Q Q Q ] ^ j / [ #.Q Q Q Q Q Q Q Q Q Q Q , ",
"* g g g g g g g g g g g g g g l B u z f g g g g g g g g g g g g g g g g g g g g g g g g g g f ( u s l f g g g g g g g g g g g * ",
"* g g g g g g g g g g g g g f n B u ( f g g g g g g g g g g g g g g g g g g g g g g g g g g f h u s l f g g g g g g g g g g g * ",
"* g g g g g g g g g g g g g f n B u ( f g g g g g g g g g g g g g g g g g g g g g g g g g g f h u s l f g g g g g g g g g g g * ",
"* g g g g g g g g g g g g g f n B u ( f g g g g g g g g g g g g g g g g g g g g g g g g g g f h u s l f g g g g g g g g g g g * ",
"* g g g g g g g g g g g g g f n B u ( f g g g g g g g g g g g g g g g g g g g g g g g g g g f h u s l f g g g g g g g g g g g * ",
"* g g g g g g g g g g g g g f n B u ( f g g g g g g g g g g g g g g g g g g g g g g g g g g f h u s l f g g g g g g g g g g g * ",
"* g g g g g g g g g g g g g f n B u ( f g g g g g g g g g g g g g g g g g g g g g g g g g g f h u s l f g g g g g g g g g g g * ",
"* g g g g g g g g g g g g g f n B u ( f g g g g g g g g g g g g g g g g g g g g g g g g g g f h u s l f g g g g g g g g g g g * ",
"* g g g g g g g g g g g g g f n B u ( f g g g g g g g g g g g g g g g g g g g g g g g g g g f h u s l f g g g g g g g g g g g * ",
"= f f f f f f f f f f f f f x b B u h x f f f f f f f f f f f f f f f f f f f f f f f f f f x l u s b x f f f f f f f f f f f = ",
"0 d d d d d d d d d d d d d h v u c { h d d d d d d d d d d d d d d d d d d d d d d d d d d h %.c u v h d d d d d d d d d d d 0 ",
"6 u u u u u u u u u u u u u u c &.&.c u u u u u u u u u u u u u u u u u u u u u u u u u u u u c &.&.c u u u u u u u u u u u u 6 ",
"  $ $ $ $ $ $ $ $ $ $ $ $ $ $ $ $ $ $ $ $ $ $ $ $ $ $ $ $ $ $ $ $ $ $ $ $ $ $ $ $ $ $ $ $ $ $ $ $ $ $ $ $ $ $ $ $ $ $ $ $ $ $   "
};
